<svg xmlns="http://www.w3.org/2000/svg" xmlns:xlink="http://www.w3.org/1999/xlink" preserveAspectRatio="xMidYMid" width="48" height="48" viewBox="0 0 48 48">
  <defs>
    <style>
      .cls-1 {
        fill: #f84242;
        fill-rule: evenodd;
      }
    </style>
  </defs>
  <path d="M46.500,48.000 L1.500,48.000 C0.672,48.000 -0.000,47.328 -0.000,46.500 L-0.000,10.500 C-0.000,9.671 0.672,9.000 1.500,9.000 L3.000,9.000 L3.000,6.000 L9.000,6.000 L9.000,9.000 L15.000,9.000 L15.000,1.500 C15.000,0.671 15.672,-0.000 16.500,-0.000 L31.500,-0.000 C32.328,-0.000 33.000,0.671 33.000,1.500 L33.000,9.000 L46.500,9.000 C47.328,9.000 48.000,9.671 48.000,10.500 L48.000,46.500 C48.000,47.328 47.328,48.000 46.500,48.000 ZM30.000,3.000 L18.000,3.000 L18.000,9.000 L30.000,9.000 L30.000,3.000 ZM45.000,12.000 L31.500,12.000 L16.500,12.000 L3.000,12.000 L3.000,45.000 L45.000,45.000 L45.000,12.000 ZM24.000,19.500 C28.971,19.500 33.000,23.529 33.000,28.500 C33.000,33.470 28.971,37.500 24.000,37.500 C19.029,37.500 15.000,33.470 15.000,28.500 C15.000,23.529 19.029,19.500 24.000,19.500 ZM24.000,34.500 C27.314,34.500 30.000,31.814 30.000,28.500 C30.000,25.186 27.314,22.500 24.000,22.500 C20.686,22.500 18.000,25.186 18.000,28.500 C18.000,31.814 20.686,34.500 24.000,34.500 Z" class="cls-1"/>
</svg>
