<svg xmlns="http://www.w3.org/2000/svg" xmlns:xlink="http://www.w3.org/1999/xlink" preserveAspectRatio="xMidYMid" width="36" height="48" viewBox="0 0 36 48">
  <defs>
    <style>
      .cls-1 {
        fill: #f84242;
        fill-rule: evenodd;
      }
    </style>
  </defs>
  <path d="M34.500,48.000 L1.500,48.000 C0.672,48.000 -0.000,47.328 -0.000,46.500 L-0.000,1.500 C-0.000,0.671 0.672,-0.000 1.500,-0.000 L34.500,-0.000 C35.328,-0.000 36.000,0.671 36.000,1.500 L36.000,46.500 C36.000,47.328 35.328,48.000 34.500,48.000 ZM33.000,3.000 L3.000,3.000 L3.000,45.000 L33.000,45.000 L33.000,3.000 ZM30.000,33.000 L6.000,33.000 L6.000,6.000 L30.000,6.000 L30.000,33.000 ZM27.000,9.000 L9.000,9.000 L9.000,30.000 L27.000,30.000 L27.000,9.000 ZM16.500,36.000 L19.500,36.000 C20.328,36.000 21.000,36.671 21.000,37.500 L21.000,40.500 C21.000,41.328 20.328,42.000 19.500,42.000 L16.500,42.000 C15.672,42.000 15.000,41.328 15.000,40.500 L15.000,37.500 C15.000,36.671 15.672,36.000 16.500,36.000 Z" class="cls-1"/>
</svg>
